<svg width="120" height="120" viewBox="0 0 120 120" fill="none" xmlns="http://www.w3.org/2000/svg">
<g clip-path="url(#clip0_85_426)">
<path d="M5.00503 109.993C4.34509 109.99 3.69116 110.118 3.08096 110.369C2.47075 110.621 1.91633 110.99 1.44968 111.457C0.98303 111.924 0.613375 112.478 0.362034 113.088C0.110693 113.699 -0.0173619 114.353 -0.0147465 115.012C-0.0124839 115.669 0.11917 116.319 0.372694 116.925C0.626218 117.531 0.996644 118.081 1.46281 118.544C1.92897 119.007 2.48174 119.373 3.08952 119.622C3.69731 119.871 4.34821 119.998 5.00503 119.995H114.995C115.652 119.998 116.303 119.871 116.911 119.622C117.518 119.373 118.071 119.007 118.537 118.544C119.003 118.081 119.374 117.531 119.627 116.925C119.881 116.319 120.012 115.669 120.015 115.012C120.017 114.353 119.889 113.699 119.638 113.088C119.387 112.478 119.017 111.924 118.55 111.457C118.084 110.991 117.529 110.621 116.919 110.37C116.309 110.118 115.655 109.99 114.995 109.993H5.00503Z" fill="#04A777"/>
<path d="M21.9832 75.0024C15.4216 75.0024 9.98778 80.4363 9.98778 86.9981V115.012C9.99011 115.669 10.1218 116.319 10.3753 116.925C10.6289 117.531 10.9993 118.081 11.4654 118.543C11.9315 119.006 12.4843 119.373 13.092 119.622C13.6997 119.871 14.3506 119.998 15.0074 119.995H35.0124C36.3325 119.99 37.5971 119.464 38.5306 118.53C39.464 117.597 39.9905 116.332 39.9951 115.012V86.9981C39.9951 80.4363 34.5611 75.0024 27.9995 75.0024H21.9832Z" fill="#04A777"/>
<path d="M57.0104 57.9873C50.4487 57.9873 45.0147 63.4209 45.0147 69.983V115.012C45.0194 116.333 45.5459 117.597 46.4793 118.531C47.4127 119.464 48.6774 119.99 49.9975 119.995H70.0025C71.3226 119.99 72.5872 119.464 73.5207 118.531C74.4541 117.597 74.9806 116.333 74.9852 115.012V69.983C74.9852 63.4209 69.5512 57.9873 62.9896 57.9873H57.0104Z" fill="#04A777"/>
<path d="M92.0005 43.002C85.4389 43.002 80.0049 48.4358 80.0049 54.9976V115.012C80.0095 116.332 80.536 117.597 81.4695 118.531C82.403 119.464 83.6677 119.99 84.9878 119.995H104.993C105.649 119.998 106.3 119.871 106.908 119.622C107.516 119.373 108.069 119.006 108.535 118.544C109.001 118.081 109.371 117.531 109.625 116.925C109.878 116.319 110.01 115.669 110.012 115.012V54.9976C110.012 48.4358 104.542 43.002 97.9799 43.002H92.0005Z" fill="#04A777"/>
<path d="M87.3169 0.004883C85.9959 0.00744972 84.7296 0.53269 83.7946 1.46587C82.8595 2.39906 82.3318 3.66434 82.3267 4.98535C82.3241 5.64278 82.4512 6.29427 82.7007 6.90252C82.9502 7.51076 83.3172 8.06383 83.7808 8.53007C84.2443 8.9963 84.7952 9.36655 85.402 9.61962C86.0087 9.87269 86.6595 10.0036 87.3169 10.0049H92.4829C64.2043 34.3174 34.5946 49.42 4.08446 55.0732C2.78386 55.3197 1.63405 56.0718 0.887148 57.1647C0.140247 58.2576 -0.142784 59.6021 0.100114 60.9033C0.337903 62.2031 1.08048 63.3558 2.16559 64.1097C3.25069 64.8636 4.5901 65.1574 5.89111 64.9268C38.7419 58.8398 70.3502 42.5162 100.012 16.7725V22.6611C100.01 23.3177 100.136 23.9684 100.385 24.576C100.634 25.1836 101 25.7363 101.463 26.2024C101.925 26.6685 102.475 27.0389 103.081 27.2926C103.686 27.5462 104.336 27.6781 104.993 27.6807C105.653 27.6833 106.306 27.5552 106.917 27.3038C107.527 27.0525 108.081 26.6829 108.548 26.2162C109.014 25.7496 109.384 25.1952 109.635 24.5851C109.887 23.9749 110.015 23.321 110.012 22.6611V7.93457C110.013 3.61911 106.359 0.00393812 102.043 0.004883H87.3169Z" fill="#04A777"/>
</g>
<defs>
<clipPath id="clip0_85_426">
<rect width="120" height="120" fill="white"/>
</clipPath>
</defs>
</svg>
