<svg width="17" height="17" viewBox="0 0 17 17" fill="none" xmlns="http://www.w3.org/2000/svg">
<g clip-path="url(#clip0_340_68)">
<path d="M9.66397 3.89221C9.42362 3.89221 9.22903 4.08679 9.22903 4.32702V8.53359C9.22903 8.66457 9.28824 8.78884 9.39029 8.87137L11.265 10.3914C11.3455 10.4566 11.442 10.4884 11.5384 10.4884C11.6647 10.4884 11.7904 10.4334 11.8762 10.3276C12.0272 10.141 11.9989 9.86734 11.8124 9.716L10.0985 8.32659V4.32721C10.0985 4.08698 9.90393 3.8924 9.66395 3.8924L9.66397 3.89221Z" fill="#333333"/>
<path d="M7.08147 11.5194C7.32146 11.5194 7.51603 11.3248 7.51603 11.0848C7.51603 10.8445 7.32145 10.6499 7.08147 10.6499H4.20453C3.96417 10.6499 3.76959 10.8445 3.76959 11.0848C3.76959 11.3248 3.96417 11.5194 4.20453 11.5194H7.08147Z" fill="#333333"/>
<path d="M1.09022 8.75942H3.18191C3.18972 8.9844 3.20522 9.20839 3.23574 9.42689C3.26614 9.64417 3.45229 9.80126 3.6658 9.80126C3.6857 9.80126 3.70597 9.79992 3.72635 9.79724C3.96427 9.76416 4.13016 9.54443 4.09672 9.30664C4.07158 9.12756 4.05888 8.94386 4.05144 8.75939H5.91703C6.15739 8.75939 6.35197 8.56481 6.35197 8.32483C6.35197 8.08447 6.15739 7.88989 5.91703 7.88989H1.09016C0.850166 7.88989 0.655594 8.08447 0.655594 8.32483C0.655594 8.56482 0.850175 8.75939 1.09016 8.75939L1.09022 8.75942Z" fill="#333333"/>
<path d="M2.36334 5.96756H3.71869L3.50921 6.40569C3.4057 6.62224 3.4975 6.88175 3.71405 6.98528C3.7746 7.01421 3.83844 7.02788 3.9013 7.02788C4.06354 7.02788 4.2193 6.93669 4.29365 6.78044L4.65071 6.03288C4.66634 6.0009 4.67586 5.96782 4.68294 5.93462C5.65719 4.0689 7.55319 2.91349 9.66419 2.91349C12.7628 2.91349 15.2839 5.43474 15.2839 8.53412C15.2839 11.6331 12.7627 14.1541 9.66419 14.1541C8.12441 14.1541 6.68787 13.5439 5.6195 12.4357C5.45287 12.2628 5.17747 12.258 5.00475 12.4246C4.83214 12.5913 4.82701 12.8663 4.99364 13.0394C6.22739 14.3189 7.8862 15.0236 9.66427 15.0236C13.2424 15.0236 16.1536 12.1125 16.1536 8.53395C16.1536 4.9552 13.2425 2.04395 9.66427 2.04395C7.39205 2.04395 5.33614 3.20398 4.15645 5.10573C4.13167 5.10145 4.10677 5.09816 4.08065 5.09816H2.36374C2.12338 5.09816 1.9288 5.29274 1.9288 5.53297C1.92868 5.77296 2.12326 5.96753 2.36362 5.96753L2.36334 5.96756Z" fill="#333333"/>
<path d="M9.22897 13.1682C9.22897 13.4086 9.42355 13.6031 9.66391 13.6031C9.9039 13.6031 10.0985 13.4086 10.0985 13.1682V13.1161C10.0985 12.8761 9.90389 12.6815 9.66391 12.6815C9.42355 12.6815 9.22897 12.8761 9.22897 13.1161V13.1682Z" fill="#333333"/>
<path d="M14.4555 8.9685C14.6955 8.9685 14.8901 8.77392 14.8901 8.53369C14.8901 8.29358 14.6955 8.09888 14.4555 8.09888H14.4032C14.1628 8.09888 13.9682 8.29346 13.9682 8.53369C13.9682 8.7738 14.1628 8.9685 14.4032 8.9685H14.4555Z" fill="#333333"/>
<path d="M2.29334 11.5194H2.76197C3.00232 11.5194 3.19691 11.3248 3.19691 11.0848C3.19691 10.8445 3.00232 10.6499 2.76197 10.6499H2.29334C2.05335 10.6499 1.85878 10.8445 1.85878 11.0848C1.85878 11.3247 2.05348 11.5194 2.29334 11.5194Z" fill="#333333"/>
</g>
<defs>
<clipPath id="clip0_340_68">
<rect width="16" height="16" fill="white" transform="translate(0.333344 0.5)"/>
</clipPath>
</defs>
</svg>
