<svg width="16" height="17" viewBox="0 0 16 17" fill="none" xmlns="http://www.w3.org/2000/svg">
<g clip-path="url(#clip0_340_63)">
<path d="M6.29025 12.7793L9.238 13.8198C9.53371 13.9245 9.78974 14.1182 9.97094 14.3743C10.1521 14.6304 10.2496 14.9363 10.25 15.25V16.25H10.75V15.25C10.7496 14.8329 10.62 14.4261 10.3791 14.0856C10.1381 13.7451 9.7977 13.4875 9.4045 13.3483L6.33325 12.2643C6.30216 12.2535 6.26927 12.2491 6.23645 12.2511C6.20363 12.2531 6.17154 12.2616 6.142 12.276C6.11525 12.2543 6.089 12.232 6.0635 12.209C6.27563 12.2348 6.48906 12.2485 6.70275 12.25H6.75C6.9737 12.2491 7.19241 12.1838 7.38004 12.062C7.56768 11.9402 7.71632 11.767 7.80825 11.563L8.35475 11.9533C8.39211 11.9799 8.4361 11.9958 8.48189 11.9991C8.52768 12.0025 8.5735 11.9931 8.61432 11.9721C8.65515 11.9511 8.68941 11.9193 8.71334 11.8801C8.73728 11.8409 8.74996 11.7959 8.75 11.75V11.258C8.95937 11.2801 9.16131 11.348 9.34142 11.4571C9.52152 11.5661 9.67537 11.7135 9.792 11.8888C9.81236 11.9197 9.83933 11.9457 9.87098 11.965C9.90263 11.9842 9.93816 11.9962 9.975 12C9.9835 12 9.99175 12.0013 10 12.0013C10.0663 12.0012 10.1299 11.9749 10.1767 11.928L10.9267 11.178C10.9696 11.1354 10.9956 11.0787 10.9999 11.0184C11.0042 10.9581 10.9864 10.8982 10.95 10.85C10.6931 10.5093 10.3608 10.2327 9.97909 10.0418C9.59741 9.85099 9.17673 9.75111 8.75 9.75001V9.25001C8.74996 9.2041 8.73728 9.15909 8.71334 9.11991C8.68941 9.08073 8.65515 9.0489 8.61432 9.02791C8.5735 9.00691 8.52768 8.99756 8.48189 9.00089C8.4361 9.00422 8.39211 9.02008 8.35475 9.04676L8.24425 9.12551C8.24625 9.06451 8.25 9.00376 8.25 8.94276C8.25008 8.46239 8.19131 7.98383 8.075 7.51776L8 7.21901C7.99805 6.71642 7.95567 6.2148 7.87325 5.71901L7.765 5.06901L7.85275 4.95926C8.4326 4.23265 8.7489 3.33088 8.75 2.40126C8.75031 2.0828 8.67184 1.7692 8.52157 1.48842C8.3713 1.20764 8.1539 0.968396 7.88875 0.792008C7.85678 0.770853 7.82038 0.757332 7.78235 0.752491C7.74433 0.747649 7.7057 0.751616 7.66945 0.764085C7.63321 0.776554 7.60031 0.797191 7.57331 0.824401C7.54631 0.851611 7.52593 0.884665 7.51375 0.921008C7.45134 1.1071 7.34092 1.27343 7.19365 1.40318C7.04638 1.53294 6.86747 1.62153 6.675 1.66001L6.55725 1.68351C5.79804 1.83151 5.01121 1.72492 4.31875 1.38026C4.15353 1.29766 3.97187 1.25322 3.78718 1.25021C3.60249 1.2472 3.41948 1.28571 3.25166 1.36287C3.08383 1.44004 2.93548 1.55391 2.81754 1.69607C2.6996 1.83824 2.61509 2.00507 2.57025 2.18426L2.55475 2.25001C2.17655 2.25855 1.80596 2.35795 1.47425 2.53982C1.14255 2.72169 0.859459 2.98069 0.648885 3.29495C0.438311 3.60922 0.306431 3.96953 0.264375 4.34548C0.222319 4.72143 0.271322 5.10198 0.407248 5.45501L1.15 7.38876C1.02748 7.46698 0.926621 7.57477 0.856717 7.70222C0.786813 7.82966 0.750112 7.97265 0.749998 8.11801C0.750288 8.40793 0.817806 8.69384 0.947248 8.95326L1.4145 9.88851C1.46867 9.99737 1.55221 10.0889 1.65568 10.1528C1.75914 10.2167 1.8784 10.2503 2 10.25C2.13164 10.2504 2.26103 10.2159 2.375 10.15L2.46675 10.6098C2.528 10.9164 2.50365 11.234 2.39636 11.5278C2.28907 11.8215 2.10298 12.08 1.8585 12.275C1.82965 12.2606 1.79823 12.252 1.76605 12.2498C1.73387 12.2475 1.70156 12.2517 1.671 12.262L0.170998 12.762L0.328998 13.237L1.70725 12.7778C2.37896 13.2476 3.1788 13.4997 3.99851 13.4999C4.81822 13.5002 5.61822 13.2486 6.29025 12.7793ZM8.5 10.25H8.75C9.06278 10.2508 9.37199 10.3165 9.65811 10.4429C9.94422 10.5692 10.201 10.7536 10.4122 10.9843L10.022 11.375C9.84123 11.178 9.62147 11.0207 9.37668 10.9131C9.13188 10.8055 8.86739 10.75 8.6 10.75H8.5C8.43369 10.75 8.37011 10.7763 8.32322 10.8232C8.27634 10.8701 8.25 10.9337 8.25 11V11.2643L7.18025 10.5L8.25 9.73576V10C8.25 10.0663 8.27634 10.1299 8.32322 10.1768C8.37011 10.2237 8.43369 10.25 8.5 10.25ZM0.749998 4.60851C0.750593 4.11579 0.94659 3.64341 1.295 3.29501C1.6434 2.9466 2.11578 2.7506 2.6085 2.75001H2.75C2.80581 2.75005 2.86002 2.73141 2.90401 2.69707C2.94801 2.66273 2.97924 2.61466 2.99275 2.56051L3.05625 2.30551C3.0829 2.19895 3.13315 2.09973 3.20328 2.01519C3.27341 1.93065 3.36164 1.86293 3.46144 1.81705C3.56124 1.77117 3.67008 1.74829 3.77991 1.7501C3.88974 1.75191 3.99776 1.77836 4.096 1.82751C4.88785 2.22215 5.78785 2.3443 6.65625 2.17501L6.775 2.15001C6.99533 2.10567 7.20399 2.01584 7.38763 1.88626C7.57127 1.75669 7.72585 1.59022 7.8415 1.39751C8.10403 1.66557 8.25074 2.02605 8.25 2.40126C8.24899 3.21739 7.97129 4.00907 7.46225 4.64701L7.37975 4.75001H6.4605C5.51987 4.74993 4.58543 4.59797 3.69325 4.30001C3.55706 4.25459 3.41264 4.23925 3.26995 4.25505C3.12726 4.27086 2.9897 4.31744 2.86675 4.39156C2.74381 4.46569 2.63841 4.56561 2.55783 4.68442C2.47724 4.80323 2.4234 4.93812 2.4 5.07976C2.30036 5.67845 2.25019 6.28433 2.25 6.89126V7.52226C2.17073 7.43814 2.07533 7.37084 1.9695 7.32437C1.86367 7.2779 1.74957 7.2532 1.634 7.25176L0.874998 5.27501C0.792571 5.06246 0.750191 4.83648 0.749998 4.60851ZM2.2975 12.5548C2.57293 12.2988 2.77817 11.9765 2.89363 11.6187C3.00908 11.2609 3.0309 10.8794 2.957 10.5108L2.745 9.45001C2.73266 9.38925 2.69819 9.33524 2.64827 9.29847C2.59836 9.2617 2.53656 9.24479 2.47487 9.25102C2.41319 9.25725 2.35602 9.28618 2.31447 9.33219C2.27291 9.3782 2.24994 9.43801 2.25 9.50001C2.25 9.56631 2.22366 9.6299 2.17677 9.67678C2.12989 9.72367 2.0663 9.75001 2 9.75001C1.97127 9.75007 1.9431 9.74209 1.91867 9.72698C1.89424 9.71187 1.87452 9.69024 1.86175 9.66451L1.3945 8.72976C1.29974 8.53973 1.25028 8.33035 1.25 8.11801C1.24997 8.03508 1.27795 7.95457 1.32941 7.88954C1.38087 7.8245 1.45278 7.77876 1.5335 7.75971C1.61421 7.74067 1.69899 7.74945 1.77409 7.78463C1.84919 7.8198 1.91021 7.87931 1.94725 7.95351L2.27625 8.61176C2.30139 8.6622 2.34284 8.70268 2.39388 8.7266C2.44491 8.75053 2.50253 8.75651 2.55739 8.74356C2.61225 8.73062 2.66113 8.69952 2.69609 8.65531C2.73105 8.6111 2.75005 8.55637 2.75 8.50001V6.89126C2.75012 6.31189 2.79795 5.73352 2.893 5.16201C2.90477 5.09173 2.93162 5.02483 2.9717 4.96592C3.01179 4.907 3.06416 4.85747 3.12521 4.82072C3.18626 4.78397 3.25455 4.76088 3.32537 4.75303C3.3962 4.74518 3.46788 4.75276 3.5355 4.77526C4.47856 5.09005 5.46628 5.25045 6.4605 5.25026H7.28825L7.38025 5.80176C7.45983 6.28041 7.49988 6.76479 7.5 7.25001C7.5 7.27049 7.50252 7.29089 7.5075 7.31076L7.5895 7.63851C7.69604 8.06508 7.74994 8.50309 7.75 8.94276C7.74922 9.12893 7.7387 9.31493 7.7185 9.50001L6.60475 10.2958C6.57244 10.3189 6.54611 10.3494 6.52795 10.3848C6.50979 10.4201 6.50031 10.4593 6.50031 10.499C6.50031 10.5387 6.50979 10.5779 6.52795 10.6133C6.54611 10.6486 6.57244 10.6791 6.60475 10.7023L7.388 11.2618C7.34949 11.4016 7.26629 11.525 7.1511 11.6132C7.03591 11.7013 6.89505 11.7494 6.75 11.75H6.70275C5.49968 11.7494 4.3348 11.3275 3.41025 10.5578L3.08975 10.9423C3.73793 11.4804 4.4981 11.8669 5.31475 12.0738C5.42077 12.2513 5.55112 12.4131 5.702 12.5545C5.18199 12.8465 4.59563 12.9999 3.99925 12.9999C3.40287 12.9999 2.81651 12.8465 2.2965 12.5545L2.2975 12.5548Z" fill="#333333"/>
<path d="M15.4197 9.31294L14.606 8.33644C14.4532 8.15257 14.2618 8.00467 14.0453 7.90329C13.8288 7.80191 13.5926 7.74955 13.3535 7.74994C13.2411 7.75033 13.1311 7.78214 13.0358 7.84178C12.9406 7.90142 12.8639 7.98651 12.8145 8.08744C12.5708 7.97531 12.3174 7.88552 12.0575 7.81919C11.8659 7.77177 11.6691 7.74851 11.4717 7.74994C11.3658 7.74986 11.2612 7.77298 11.1652 7.81769C11.0692 7.86239 10.9841 7.92759 10.916 8.00869C10.891 8.00669 10.866 7.99994 10.841 7.99994C10.7196 7.99992 10.6012 8.0373 10.5018 8.107C10.4024 8.17669 10.327 8.27532 10.2856 8.38945C10.2443 8.50358 10.2392 8.62767 10.2709 8.74483C10.3027 8.86198 10.3697 8.96651 10.463 9.04419L10.663 9.21169C10.5685 9.31575 10.5116 9.44844 10.5012 9.58862C10.4909 9.7288 10.5278 9.8684 10.606 9.98519L11.361 11.1182C11.4307 11.2227 11.4755 11.3417 11.4922 11.4662C11.5089 11.5907 11.4969 11.7173 11.4572 11.8364C11.3196 12.249 11.2496 12.6812 11.25 13.1162C11.2495 13.7319 11.367 14.342 11.5962 14.9134C11.698 15.1675 11.7502 15.4387 11.75 15.7124V16.2499H12.25V15.7124C12.2502 15.3751 12.1859 15.0408 12.0605 14.7277C11.8549 14.2153 11.7495 13.6683 11.75 13.1162C11.7499 12.735 11.8113 12.3563 11.932 11.9947C11.9958 11.8032 12.0151 11.5997 11.9882 11.3997C11.9614 11.1996 11.8892 11.0083 11.7772 10.8404L11.0225 9.70794C11.0041 9.6808 10.9965 9.64769 11.0015 9.61525C11.0064 9.5828 11.0233 9.55341 11.049 9.53294L11.8177 10.1732L12.55 11.1499L12.95 10.8499L12.2 9.84994C12.1884 9.83439 12.1751 9.82021 12.1602 9.80769L10.7827 8.65994C10.7685 8.64804 10.7582 8.63204 10.7534 8.61411C10.7485 8.59618 10.7493 8.57719 10.7556 8.55972C10.7619 8.54224 10.7734 8.52713 10.7886 8.51644C10.8038 8.50574 10.8219 8.49998 10.8405 8.49994C10.9066 8.49995 10.9717 8.51536 11.0307 8.54494L11.5842 8.82144C12.3937 9.22562 13.0707 9.85264 13.5357 10.6287L13.9642 10.3712C13.4502 9.51399 12.702 8.82142 11.8077 8.37494L11.5682 8.25519C11.6924 8.2593 11.8158 8.27606 11.9365 8.30519C12.4575 8.43662 12.9467 8.67155 13.375 8.996C13.8033 9.32044 14.1619 9.72776 14.4295 10.1937L14.533 10.3749L14.967 10.1269L14.8635 9.94569C14.4772 9.27387 13.9239 8.71326 13.2572 8.31819C13.2644 8.29832 13.2774 8.28112 13.2946 8.26892C13.3118 8.25671 13.3324 8.25009 13.3535 8.24994C13.5192 8.24975 13.6829 8.28608 13.833 8.35634C13.983 8.42659 14.1158 8.52906 14.2217 8.65644L15.0357 9.63344C15.0555 9.65694 15.0765 9.67994 15.098 9.70144C15.195 9.79902 15.2496 9.93088 15.25 10.0684C15.2495 10.4777 15.1543 10.8812 14.9717 11.2474L14.456 12.2787C14.063 13.0647 13.9191 13.9518 14.0435 14.8217L14.2525 16.2854L14.7475 16.2144L14.5385 14.7499C14.4284 13.9808 14.5557 13.1964 14.9032 12.5014L15.419 11.4702C15.636 11.0347 15.7493 10.555 15.75 10.0684C15.7492 9.79836 15.6419 9.53948 15.4515 9.34794C15.4403 9.33682 15.4297 9.32514 15.4197 9.31294Z" fill="#333333"/>
</g>
<defs>
<clipPath id="clip0_340_63">
<rect width="16" height="16" fill="white" transform="translate(0 0.5)"/>
</clipPath>
</defs>
</svg>
