<svg width="58" height="58" viewBox="0 0 58 58" fill="none" xmlns="http://www.w3.org/2000/svg">
<path d="M54.9376 17.1099C55.0304 17.4463 54.9132 17.8175 54.7172 18.1075L48.4648 27.4107C48.2328 27.7703 47.7456 27.9675 47.3384 27.9675C47.2224 27.9675 46.8976 27.9443 46.7712 27.9095L41.76 26.6799V48.7199C41.76 49.3927 41.2844 49.8799 40.6 49.8799H16.24C15.5556 49.8799 15.08 49.3927 15.08 48.7199V26.6799L10.5792 27.9211C10.0572 28.0835 9.6048 27.8747 9.3148 27.4223L3.1088 18.1423C2.9116 17.8407 2.8536 17.5043 2.9464 17.1679C3.0276 16.8199 3.2712 16.5879 3.5844 16.4255L16.24 10.4399H22.04C22.7244 10.4399 23.2 10.9155 23.2 11.5999C23.2 13.9895 26.5524 15.6831 28.942 15.6831C31.3316 15.6831 34.8 14.0011 34.8 11.5999C34.8 10.9271 35.2756 10.4399 35.96 10.4399H41.76L54.288 16.3095C54.6128 16.4719 54.8448 16.7619 54.9376 17.1099Z" fill="#D90368"/>
</svg>
