<svg width="58" height="58" viewBox="0 0 58 58" fill="none" xmlns="http://www.w3.org/2000/svg">
<path d="M52.3222 12.8553H39.3468V8.66475C39.3447 6.16868 37.3209 4.14697 34.8269 4.1449H22.3673C19.8712 4.14697 17.8495 6.17075 17.8474 8.66475V12.8553H4.85543C2.175 12.8553 0.00414276 15.0282 0.00414276 17.7065V49.0058C0.00414276 51.6863 2.17707 53.8571 4.85543 53.8571H52.3367C55.0171 53.8571 57.188 51.6842 57.188 49.0058V17.7065C57.188 15.0282 55.0171 12.8532 52.3367 12.8532C52.3326 12.8532 52.3264 12.8553 52.3222 12.8553ZM21.7148 8.66268C21.7148 8.66268 21.7148 8.66061 21.7148 8.65854C21.7148 8.3064 22.0006 8.02054 22.3528 8.02054H22.3569H34.829H34.8352C35.1874 8.02054 35.4711 8.3064 35.4711 8.65647V8.66268V12.8532H21.7169L21.7148 8.66268ZM28.5899 47.1726C20.9566 47.1726 14.7672 40.9832 14.7672 33.35C14.7672 25.7168 20.9566 19.5273 28.5899 19.5273C36.2231 19.5273 42.4125 25.7168 42.4125 33.35C42.4125 40.9832 36.2251 47.1705 28.5919 47.1705L28.5899 47.1726Z" fill="#820263"/>
<path d="M31.9953 23.5604H25.1554V29.9156H18.7879V36.7761H25.1637V43.1313H32.0036V36.7679H38.3794V29.9073H31.9953V23.5604Z" fill="#820263"/>
</svg>
