<svg width="58" height="58" viewBox="0 0 58 58" fill="none" xmlns="http://www.w3.org/2000/svg">
<g clip-path="url(#clip0_75_433)">
<path d="M13.5333 0L9.66667 21.2667C9.10059 24.3793 16.5551 25.8332 16.4333 29L15.4667 54.1333C15.3182 57.9973 19.3333 58 19.3333 58C19.3333 58 23.3485 57.9973 23.2 54.1333L22.2333 29C22.1119 25.8386 28.9358 24.4342 29 21.2667L25.1333 0H23.2L24.1667 15.4667L21.2667 17.4L20.3 0H18.3667L17.4 17.4L14.5 15.4667L15.4667 0H13.5333ZM46.4 0C43.5526 0 38.8051 2.53228 36.9069 6.32857C35.3251 9.17599 34.8 15.537 34.8 19.3333V29C34.8 32.1637 39.0181 32.8667 40.6 32.8667L38.6667 54.1333C38.3167 57.9841 42.5333 58 42.5333 58C42.5333 58 46.4 58 46.4 54.1333V0Z" fill="#04A777"/>
</g>
<defs>
<clipPath id="clip0_75_433">
<rect width="58" height="58" fill="white"/>
</clipPath>
</defs>
</svg>
