<svg width="16" height="17" viewBox="0 0 16 17" fill="none" xmlns="http://www.w3.org/2000/svg">
<path d="M12.4499 16.5C12.3202 16.4997 12.1925 16.4663 12.0778 16.4027L8 14.1547L3.92215 16.4027C3.79012 16.4752 3.64138 16.5076 3.49272 16.4963C3.34405 16.4849 3.20137 16.4302 3.08076 16.3384C2.96014 16.2466 2.8664 16.1212 2.81009 15.9765C2.75379 15.8318 2.73716 15.6735 2.76208 15.5194L3.54053 10.7584L0.241133 7.38643C0.134398 7.27717 0.0589249 7.1388 0.0232352 6.98694C-0.0124545 6.83509 -0.00693905 6.67579 0.0391587 6.52705C0.0852565 6.37831 0.170101 6.24604 0.28411 6.14518C0.39812 6.04432 0.536755 5.97889 0.684359 5.95627L5.24383 5.26175L7.28316 0.930178C7.35662 0.799192 7.46144 0.690596 7.58725 0.615144C7.71305 0.539691 7.85547 0.5 8.0004 0.5C8.14533 0.5 8.28775 0.539691 8.41356 0.615144C8.53936 0.690596 8.64418 0.799192 8.71764 0.930178L10.7562 5.26175L15.3156 5.95627C15.4632 5.97889 15.6019 6.04432 15.7159 6.14518C15.8299 6.24604 15.9147 6.37831 15.9608 6.52705C16.0069 6.67579 16.0125 6.83509 15.9768 6.98694C15.9411 7.1388 15.8656 7.27717 15.7589 7.38643L12.4595 10.7584L13.2387 15.5194C13.2584 15.6398 13.2528 15.7632 13.2223 15.881C13.1917 15.9989 13.137 16.1083 13.062 16.2017C12.9869 16.2951 12.8934 16.3701 12.7878 16.4217C12.6822 16.4732 12.5663 16.4999 12.4499 16.5Z" fill="#FFCC00"/>
</svg>
