<svg width="17" height="17" viewBox="0 0 17 17" fill="none" xmlns="http://www.w3.org/2000/svg">
<g clip-path="url(#clip0_340_79)">
<path d="M16.231 11.8947H14.4106C14.2753 11.8947 14.1646 11.784 14.1646 11.6487C14.1646 11.1075 13.7096 10.6647 13.1683 10.6647C12.6148 10.6647 12.1597 11.1075 12.1597 11.6487C12.1597 11.784 12.049 11.8947 11.9138 11.8947H10.1057C9.97043 11.8947 9.85971 11.784 9.85971 11.6487V5.94153C9.85971 5.80628 9.97043 5.69556 10.1057 5.69556H14.0785C14.1769 5.69556 14.2629 5.74475 14.2999 5.83081L16.4524 10.3942C16.4647 10.4311 16.4771 10.4681 16.4771 10.505V11.6612C16.4769 11.7841 16.3663 11.8949 16.231 11.8949L16.231 11.8947ZM14.6444 11.4026H15.9851V10.5539L13.9187 6.18731H10.3518V11.4148H11.6925C11.8155 10.7138 12.4305 10.1848 13.1684 10.1848C13.9064 10.1848 14.5214 10.7138 14.6445 11.4025L14.6444 11.4026Z" fill="#333333"/>
<path d="M14.6935 9.58239H11.1757C11.1019 9.58239 11.0527 9.5332 11.0527 9.45934V6.901C11.0527 6.82715 11.1019 6.77795 11.1757 6.77795H13.4881C13.5373 6.77795 13.5742 6.80261 13.5988 6.85181L14.8043 9.41015C14.8166 9.44702 14.8166 9.49621 14.7919 9.5332C14.7796 9.55773 14.7304 9.58239 14.6935 9.58239ZM11.2988 9.3363H14.497L13.4146 7.02392H11.299L11.2988 9.3363Z" fill="#333333"/>
<path d="M10.1057 11.8946H6.09572C5.96046 11.8946 5.84974 11.7839 5.84974 11.6487C5.84974 11.1074 5.39468 10.6647 4.84121 10.6647C4.28774 10.6647 3.83268 11.1074 3.83268 11.6487C3.83268 11.7839 3.72196 11.8946 3.58671 11.8946H1.10196C0.966706 11.8946 0.855988 11.7839 0.855988 11.6487V4.12085C0.855988 3.9856 0.966706 3.87488 1.10196 3.87488H10.1057C10.241 3.87488 10.3517 3.9856 10.3517 4.12085V11.6608C10.3517 11.7839 10.241 11.8946 10.1057 11.8946ZM6.31728 11.4026H9.84728V4.36695H1.3479V11.4151L3.37743 11.4149C3.50048 10.7139 4.11547 10.185 4.85337 10.185C5.5914 10.185 6.2064 10.7139 6.31712 11.4026L6.31728 11.4026Z" fill="#333333"/>
<path d="M5.3826 8.9059H3.09476C3.05789 8.9059 3.0209 8.89358 3.0087 8.86904C2.98404 8.84438 2.97183 8.80751 2.97183 8.77065C2.99649 8.52468 3.08255 8.2909 3.20548 8.06959C3.34073 7.84816 3.58682 7.57765 3.95573 7.23315C4.31241 6.901 4.43548 6.7534 4.47232 6.6919C4.54617 6.58118 4.58304 6.47047 4.58304 6.35975C4.58304 6.24902 4.55838 6.16297 4.49698 6.11377C4.44779 6.06458 4.36173 6.02771 4.26334 6.02771C4.16495 6.02771 4.07889 6.05237 4.02969 6.11377C3.96817 6.1753 3.9313 6.28601 3.9313 6.44593C3.9313 6.4828 3.91898 6.50745 3.88211 6.53199C3.85745 6.55665 3.82059 6.56885 3.79605 6.55665L3.14421 6.49512C3.10734 6.49512 3.08268 6.47046 3.05815 6.44593C3.03349 6.42127 3.03349 6.3844 3.03349 6.35987C3.07036 5.96631 3.21794 5.68337 3.43936 5.4989C3.6608 5.32666 3.94365 5.2406 4.2758 5.2406C4.64483 5.2406 4.93999 5.33899 5.14908 5.54809C5.37052 5.7572 5.4689 6.0155 5.4689 6.31066C5.4689 6.4829 5.44424 6.64281 5.38284 6.79041C5.32131 6.93799 5.23525 7.0979 5.09988 7.25781C5.01382 7.36853 4.87844 7.51611 4.65713 7.70056C4.48489 7.86048 4.36196 7.98352 4.30044 8.04494H5.34597C5.41982 8.04494 5.46902 8.09413 5.46902 8.16798V8.77064C5.50564 8.84437 5.45645 8.9059 5.3826 8.9059ZM3.24248 8.65993H5.25969V8.30325H4.09123C4.04203 8.30325 4.00517 8.27859 3.98051 8.24172C3.95585 8.20486 3.95585 8.15566 3.98051 8.11867C4.01737 8.05715 4.06657 7.98342 4.12809 7.9219C4.18962 7.86037 4.31254 7.72512 4.52165 7.54055C4.71843 7.35611 4.86603 7.22074 4.93987 7.12233C5.05059 6.97475 5.13665 6.83937 5.18584 6.71646C5.23504 6.59341 5.2597 6.45816 5.2597 6.3229C5.2597 6.08925 5.17364 5.89236 5.01373 5.73243C4.84149 5.57251 4.60785 5.49878 4.31266 5.49878C4.04203 5.49878 3.80838 5.57264 3.62382 5.70789C3.47624 5.81861 3.36552 6.01538 3.32865 6.27367L3.73453 6.31054C3.75919 6.15062 3.80838 6.03991 3.89444 5.95385C3.99283 5.84313 4.14041 5.79394 4.31266 5.79394C4.48491 5.79394 4.62015 5.84313 4.71854 5.94152C4.81692 6.03991 4.86612 6.18749 4.86612 6.35974C4.86612 6.51965 4.81693 6.66723 4.70621 6.82715C4.63235 6.93786 4.44791 7.12231 4.15274 7.40527C3.79605 7.73743 3.56227 7.99574 3.43936 8.19249C3.34085 8.34007 3.27933 8.49998 3.24246 8.6599L3.24248 8.65993Z" fill="#333333"/>
<path d="M8.10073 8.90584H7.47342C7.39956 8.90584 7.35037 8.85665 7.35037 8.78279V8.21701H6.08353C6.00967 8.21701 5.96048 8.16782 5.96048 8.09397V7.52818C5.96048 7.50353 5.97281 7.47899 5.98514 7.45433L7.46107 5.28955C7.48573 5.25269 7.5226 5.24036 7.55946 5.24036H8.10071C8.17457 5.24036 8.22376 5.28955 8.22376 5.3634V7.39293H8.51892C8.59278 7.39293 8.64197 7.44213 8.64197 7.51598V8.09411C8.64197 8.16796 8.59278 8.21715 8.51892 8.21715H8.22376V8.78294C8.22364 8.84434 8.16213 8.90584 8.10073 8.90584ZM7.59632 8.65987H7.97767V8.09409C7.97767 8.02023 8.02686 7.97104 8.10071 7.97104H8.39588V7.63888H8.10071C8.02686 7.63888 7.97767 7.58969 7.97767 7.51584V5.48643H7.62098L6.20642 7.56518V7.97106H7.47326C7.54711 7.97106 7.59631 8.02025 7.59631 8.0941L7.59632 8.65987ZM7.4734 7.65121H6.69849C6.6493 7.65121 6.61243 7.62656 6.58777 7.58969C6.56312 7.55282 6.56312 7.50363 6.6001 7.46664L7.37501 6.31039C7.39967 6.2612 7.46107 6.24887 7.51026 6.2612C7.55946 6.27353 7.59632 6.32272 7.59632 6.38424V7.54049C7.59632 7.58969 7.53492 7.65121 7.4734 7.65121ZM6.9198 7.40524H7.35034V6.76558L6.9198 7.40524Z" fill="#333333"/>
<path d="M13.1682 13.1246C12.3441 13.1246 11.6676 12.4604 11.6676 11.6487C11.6676 10.8369 12.3441 10.1727 13.1682 10.1727C13.9923 10.1727 14.6689 10.8369 14.6689 11.6487C14.6689 12.4604 13.9924 13.1246 13.1682 13.1246ZM13.1682 10.6769C12.6148 10.6769 12.1597 11.1196 12.1597 11.6609C12.1597 12.2021 12.6148 12.6449 13.1682 12.6449C13.7217 12.6449 14.1768 12.2021 14.1768 11.6609C14.1769 11.1197 13.7218 10.6769 13.1682 10.6769Z" fill="#333333"/>
<path d="M13.1682 12.2637C12.8238 12.2637 12.5286 11.9931 12.5286 11.6487C12.5286 11.3043 12.8115 11.0337 13.1682 11.0337C13.5249 11.0337 13.8079 11.3043 13.8079 11.6487C13.8079 11.9931 13.5127 12.2637 13.1682 12.2637ZM13.1682 11.292C12.9591 11.292 12.7747 11.4519 12.7747 11.661C12.7747 11.8702 12.9469 12.0301 13.1682 12.0301C13.3897 12.0301 13.5618 11.8702 13.5618 11.661C13.5619 11.4518 13.3773 11.292 13.1682 11.292Z" fill="#333333"/>
<path d="M4.85353 13.1246C4.02944 13.1246 3.35291 12.4604 3.35291 11.6487C3.35291 10.8369 4.02941 10.1727 4.85353 10.1727C5.67762 10.1727 6.35416 10.8369 6.35416 11.6487C6.35416 12.4604 5.67766 13.1246 4.85353 13.1246ZM4.85353 10.6769C4.30006 10.6769 3.845 11.1196 3.845 11.6609C3.845 12.2021 4.30006 12.6449 4.85353 12.6449C5.407 12.6449 5.86206 12.2021 5.86206 11.6609C5.86218 11.1197 5.40709 10.6769 4.85353 10.6769Z" fill="#333333"/>
<path d="M4.85352 12.2637C4.50915 12.2637 4.21387 11.9931 4.21387 11.6487C4.21387 11.3043 4.49683 11.0337 4.85352 11.0337C5.21021 11.0337 5.49318 11.3043 5.49318 11.6487C5.49318 11.9931 5.19801 12.2637 4.85352 12.2637ZM4.85352 11.292C4.64442 11.292 4.45996 11.4519 4.45996 11.661C4.45996 11.8702 4.6322 12.0301 4.85352 12.0301C5.07496 12.0301 5.24709 11.8702 5.24709 11.661C5.24721 11.4518 5.06264 11.292 4.85352 11.292Z" fill="#333333"/>
</g>
<defs>
<clipPath id="clip0_340_79">
<rect width="16" height="16" fill="white" transform="translate(0.666656 0.5)"/>
</clipPath>
</defs>
</svg>
